<?xml version="1.0" encoding="UTF-8" standalone="no"?>
<svg
   width="16"
   height="16"
   fill="currentColor"
   class="bi bi-bandaid"
   viewBox="0 0 16 16"
   version="1.1"
   id="svg2"
   sodipodi:docname="bandaid.svg"
   inkscape:version="1.4 (e7c3feb100, 2024-10-09)"
   xmlns:inkscape="http://www.inkscape.org/namespaces/inkscape"
   xmlns:sodipodi="http://sodipodi.sourceforge.net/DTD/sodipodi-0.dtd"
   xmlns="http://www.w3.org/2000/svg"
   xmlns:svg="http://www.w3.org/2000/svg">
  <defs
     id="defs2" />
  <sodipodi:namedview
     id="namedview2"
     pagecolor="#505050"
     bordercolor="#eeeeee"
     borderopacity="1"
     inkscape:showpageshadow="0"
     inkscape:pageopacity="0"
     inkscape:pagecheckerboard="0"
     inkscape:deskcolor="#505050"
     inkscape:zoom="38.75"
     inkscape:cx="7.9870968"
     inkscape:cy="8"
     inkscape:window-width="1600"
     inkscape:window-height="831"
     inkscape:window-x="0"
     inkscape:window-y="0"
     inkscape:window-maximized="1"
     inkscape:current-layer="svg2" />
  <path
     d="M14.121 1.879a3 3 0 0 0-4.242 0L8.733 3.026l4.261 4.26 1.127-1.165a3 3 0 0 0 0-4.242M12.293 8 8.027 3.734 3.738 8.031 8 12.293zm-5.006 4.994L3.03 8.737 1.879 9.88a3 3 0 0 0 4.241 4.24l.006-.006 1.16-1.121ZM2.679 7.676l6.492-6.504a4 4 0 0 1 5.66 5.653l-1.477 1.529-5.006 5.006-1.523 1.472a4 4 0 0 1-5.653-5.66l.001-.002 1.505-1.492z"
     id="path1"
     style="fill:#ffffff" />
  <path
     d="M5.56 7.646a.5.5 0 1 1-.706.708.5.5 0 0 1 .707-.708Zm1.415-1.414a.5.5 0 1 1-.707.707.5.5 0 0 1 .707-.707M8.39 4.818a.5.5 0 1 1-.708.707.5.5 0 0 1 .707-.707Zm0 5.657a.5.5 0 1 1-.708.707.5.5 0 0 1 .707-.707ZM9.803 9.06a.5.5 0 1 1-.707.708.5.5 0 0 1 .707-.707Zm1.414-1.414a.5.5 0 1 1-.706.708.5.5 0 0 1 .707-.708ZM6.975 9.06a.5.5 0 1 1-.707.708.5.5 0 0 1 .707-.707ZM8.39 7.646a.5.5 0 1 1-.708.708.5.5 0 0 1 .707-.708Zm1.413-1.414a.5.5 0 1 1-.707.707.5.5 0 0 1 .707-.707"
     id="path2"
     style="fill:#ffffff" />
</svg>
