<?xml version="1.0" encoding="UTF-8" standalone="no"?>
<!-- Created with Inkscape (http://www.inkscape.org/) -->

<svg
   version="1.1"
   id="svg1"
   width="1105.3013"
   height="1105.8474"
   viewBox="0 0 1105.3013 1105.8475"
   sodipodi:docname="biceps-flexed.png"
   inkscape:version="1.4 (e7c3feb100, 2024-10-09)"
   inkscape:dataloss="true"
   xmlns:inkscape="http://www.inkscape.org/namespaces/inkscape"
   xmlns:sodipodi="http://sodipodi.sourceforge.net/DTD/sodipodi-0.dtd"
   xmlns="http://www.w3.org/2000/svg"
   xmlns:svg="http://www.w3.org/2000/svg">
  <defs
     id="defs1" />
  <sodipodi:namedview
     id="namedview1"
     pagecolor="#505050"
     bordercolor="#eeeeee"
     borderopacity="1"
     inkscape:showpageshadow="0"
     inkscape:pageopacity="0"
     inkscape:pagecheckerboard="0"
     inkscape:deskcolor="#505050"
     inkscape:zoom="0.3479004"
     inkscape:cx="655.35999"
     inkscape:cy="655.35999"
     inkscape:window-width="1600"
     inkscape:window-height="831"
     inkscape:window-x="0"
     inkscape:window-y="0"
     inkscape:window-maximized="1"
     inkscape:current-layer="g1">
    <inkscape:page
       x="0"
       y="7.5987488e-14"
       width="1105.3013"
       height="1105.8475"
       id="page2"
       margin="0"
       bleed="0" />
  </sodipodi:namedview>
  <g
     inkscape:groupmode="layer"
     inkscape:label="Image"
     id="g1"
     transform="translate(-102.70939,-102.43625)">
    <path
       style="fill:#ffffff"
       d="m 673.81185,1207.9807 c -57.26955,-1.1716 -114.91999,-5.5379 -168.85821,-12.7887 -134.42035,-18.0699 -246.22616,-53.0113 -325.38176,-101.6878 -12.49514,-7.6839 -27.13802,-17.8351 -34.00387,-23.5733 -7.56542,-6.3228 -16.05554,-15.7354 -21.45774,-23.7892 -12.94113,-19.293 -20.18913,-41.7215 -21.30991,-65.94252 -0.54824,-11.8479 1.47054,-82.616 3.66148,-128.3528 9.54271,-199.2074 36.97086,-352.35686 84.29605,-470.68036 36.75995,-91.90803 85.87396,-161.66714 146.73397,-208.41369 25.28558,-19.42184 53.10736,-35.11641 82.72,-46.66327 30.9751,-12.07813 66.55644,-19.93811 102.08,-22.54967 32.03098,-2.3548 54.62732,-0.99892 77.31834,4.63945 37.86928,9.40993 72.06333,30.00477 97.94038,58.98881 28.28897,31.68556 44.85039,69.81522 48.94142,112.67873 0.77476,8.11753 0.78487,25.02587 0.019,31.78908 -4.91726,43.42322 -27.43956,80.7315 -63.09915,104.52399 -19.49015,13.00406 -41.21509,20.86808 -64.5279,23.35787 -15.89433,1.69751 -39.61414,0.36855 -56.46433,-3.16354 l -2.05024,-0.42977 -1.07987,1.48119 c -7.07637,9.70616 -13.23678,26.24932 -17.29394,46.44118 -5.14279,25.59479 -7.48124,54.12708 -9.62518,117.44 -1.33893,39.5401 -2.49459,62.7342 -4.00995,80.48 -0.34567,4.048 -0.72159,8.5459 -0.83538,9.9953 l -0.20689,2.6352 5.56684,-2.5107 c 16.13542,-7.2776 35.71581,-13.9804 52.89406,-18.107 18.32151,-4.4012 36.93285,-6.9898 57.138,-7.9469 l 8.14521,-0.3859 1.25,-2.24 c 9.84443,-17.6413 22.49863,-35.41371 36.66639,-51.49689 5.03184,-5.71213 19.70633,-20.36735 25.15318,-25.12014 21.14218,-18.44817 42.8078,-32.92085 66.72,-44.56909 35.94461,-17.50952 74.36007,-27.47938 114.5038,-29.71683 8.78707,-0.48976 30.98154,-0.21698 39.0962,0.48051 38.15948,3.27997 73.16315,12.8326 106.72005,29.12432 71.5944,34.75879 126.7483,97.84042 151.7987,173.61812 14.8675,44.9744 18.717,92.1005 11.5274,141.12 -12.8376,87.5288 -61.7323,169.01832 -139.3357,232.22152 -37.9803,30.9326 -83.50209,57.39 -132.31045,76.8992 -59.19406,23.6604 -122.47357,37.535 -188.96,41.431 -18.96087,1.1111 -41.64266,1.3644 -70.08,0.7826 z m 60.16,-82.1954 c 24.65175,-1.4359 43.40093,-3.4838 64.64,-7.0604 39.32359,-6.6219 77.76677,-17.765 113.00945,-32.7568 102.9582,-43.7971 177.388,-118.80682 203.7343,-205.32172 6.85,-22.4936 10.1668,-43.3382 10.6674,-67.04 0.5337,-25.2717 -3.0192,-48.9153 -10.918,-72.6548 -21.9583,-65.9953 -74.6331,-117.44771 -140.97315,-137.70172 -49.38936,-15.07886 -102.81915,-11.95125 -149.6,8.75714 -23.92816,10.59223 -45.29209,25.05618 -63.80173,43.19538 -8.64085,8.4679 -20.6893,22.2578 -19.98375,22.8722 0.14602,0.1271 2.85748,1.0604 6.02548,2.074 24.08279,7.7051 48.61134,19.4244 70.56,33.7123 20.12202,13.0989 26.43409,19.6247 30.25044,31.275 2.68775,8.205 2.68775,17.056 0,25.261 -2.10428,6.4238 -5.12159,11.2878 -10.04927,16.1999 -5.06186,5.0458 -9.71186,7.9312 -16.21431,10.0612 -8.23668,2.6982 -17.05016,2.6873 -25.34898,-0.031 -4.48885,-1.4704 -7.97226,-3.3577 -13.35788,-7.237 -17.41108,-12.5414 -33.73395,-21.3331 -52.96,-28.5249 -15.73065,-5.8843 -35.35875,-10.5285 -50.88,-12.0386 -1.848,-0.1799 -4.944,-0.4869 -6.88,-0.6825 -5.51302,-0.5567 -22.26795,-0.7482 -28.95999,-0.331 -23.88877,1.4895 -45.72915,6.3286 -67.44536,14.9437 -43.53388,17.2703 -80.61623,48.7946 -104.79743,89.0899 -4.0523,6.7527 -7.59699,13.5017 -11.60097,22.088 -3.63363,7.7922 -5.74312,11.052 -9.73941,15.0506 -5.5092,5.5123 -12.36352,9.3279 -19.93566,11.0976 -3.10266,0.7251 -4.33208,0.8432 -8.88117,0.8533 -3.9512,0.01 -5.96127,-0.1357 -7.98704,-0.5737 -14.89735,-3.221 -26.21421,-13.1772 -30.89563,-27.1809 -1.47967,-4.4262 -2.07733,-8.1707 -2.07733,-13.0149 0,-8.9546 1.70059,-14.0526 10.56314,-31.6659 7.49551,-14.8964 15.29925,-27.6211 25.61913,-41.7741 4.78595,-6.5636 6.80107,-9.684 9.19611,-14.24 9.95757,-18.942 16.95814,-47.7556 20.68085,-85.12 2.16138,-21.6936 3.21601,-40.65 4.81573,-86.55999 1.69693,-48.6998 2.73138,-67.32621 4.985,-89.76 4.81691,-47.95029 14.42728,-83.35647 29.72714,-109.51973 1.4151,-2.41986 2.5729,-4.58761 2.5729,-4.81723 0,-0.22962 -0.5229,-0.91374 -1.162,-1.52027 -5.97227,-5.66789 -18.35246,-22.09971 -21.78303,-28.91189 -2.52943,-5.02278 -4.25497,-12.36739 -4.25497,-18.11088 0,-5.65869 1.72254,-13.07477 4.16943,-17.95075 3.99264,-7.95621 10.88361,-14.84718 18.83982,-18.83982 4.87598,-2.44689 12.29206,-4.16943 17.95075,-4.16943 5.81469,0 13.08782,1.72545 18.26709,4.33361 6.34574,3.19556 12.11036,8.45665 16.63988,15.18639 9.39619,13.9604 18.06458,21.24002 31.12563,26.13897 9.12987,3.42445 18.73606,5.04393 32.2074,5.42978 7.36336,0.2109 11.20909,-0.062 16.73088,-1.18727 16.90863,-3.44576 31.94027,-14.39367 40.72156,-29.65851 5.99065,-10.41379 8.4436,-20.72716 8.04925,-33.84297 -0.9399,-31.26055 -14.39821,-59.98028 -37.98169,-81.05205 -15.1961,-13.57767 -35.18379,-23.18261 -55.36,-26.60287 -7.54215,-1.27853 -10.4279,-1.46543 -22.4,-1.45075 -11.90402,0.0146 -18.33915,0.33138 -29.44,1.44918 -83.84125,8.44245 -150.74926,50.75731 -202.8617,128.29649 -61.18763,91.04216 -101.15863,229.39475 -119.67673,414.23979 -6.13136,61.2023 -9.94675,125.3725 -12.01516,202.08 -1.21566,45.083 -1.21579,47.1942 -0.003,53.6651 0.99368,5.3029 3.29338,11.186 6.02054,15.4018 3.3557,5.18742 7.83358,8.95262 21.17631,17.80602 32.1435,21.3286 72.00872,39.9346 119.35998,55.7082 94.81537,31.5846 212.23933,49.8234 340.79999,52.9344 13.87108,0.3357 53.57326,0.143 61.12,-0.2966 z"
       id="path1" />
  </g>
</svg>
