<?xml version="1.0" encoding="UTF-8" standalone="no"?>
<svg
   width="16"
   height="16"
   fill="currentColor"
   class="bi bi-box-arrow-left"
   viewBox="0 0 16 16"
   version="1.1"
   id="svg2"
   sodipodi:docname="box-arrow-left.svg"
   inkscape:version="1.4 (e7c3feb100, 2024-10-09)"
   xmlns:inkscape="http://www.inkscape.org/namespaces/inkscape"
   xmlns:sodipodi="http://sodipodi.sourceforge.net/DTD/sodipodi-0.dtd"
   xmlns="http://www.w3.org/2000/svg"
   xmlns:svg="http://www.w3.org/2000/svg">
  <defs
     id="defs2" />
  <sodipodi:namedview
     id="namedview2"
     pagecolor="#505050"
     bordercolor="#eeeeee"
     borderopacity="1"
     inkscape:showpageshadow="0"
     inkscape:pageopacity="0"
     inkscape:pagecheckerboard="0"
     inkscape:deskcolor="#505050"
     inkscape:zoom="38.75"
     inkscape:cx="11.625806"
     inkscape:cy="11.922581"
     inkscape:window-width="1600"
     inkscape:window-height="831"
     inkscape:window-x="0"
     inkscape:window-y="0"
     inkscape:window-maximized="1"
     inkscape:current-layer="svg2" />
  <path
     fill-rule="evenodd"
     d="M6 12.5a.5.5 0 0 0 .5.5h8a.5.5 0 0 0 .5-.5v-9a.5.5 0 0 0-.5-.5h-8a.5.5 0 0 0-.5.5v2a.5.5 0 0 1-1 0v-2A1.5 1.5 0 0 1 6.5 2h8A1.5 1.5 0 0 1 16 3.5v9a1.5 1.5 0 0 1-1.5 1.5h-8A1.5 1.5 0 0 1 5 12.5v-2a.5.5 0 0 1 1 0z"
     id="path1"
     style="fill:#ffffff" />
  <path
     fill-rule="evenodd"
     d="M.146 8.354a.5.5 0 0 1 0-.708l3-3a.5.5 0 1 1 .708.708L1.707 7.5H10.5a.5.5 0 0 1 0 1H1.707l2.147 2.146a.5.5 0 0 1-.708.708z"
     id="path2"
     style="fill:#ffffff" />
</svg>
