<?xml version="1.0" encoding="UTF-8" standalone="no"?>
<svg
   width="16"
   height="16"
   fill="currentColor"
   class="bi bi-calendar-date"
   viewBox="0 0 16 16"
   version="1.1"
   id="svg2"
   sodipodi:docname="calendar-date.svg"
   inkscape:version="1.4 (e7c3feb100, 2024-10-09)"
   xmlns:inkscape="http://www.inkscape.org/namespaces/inkscape"
   xmlns:sodipodi="http://sodipodi.sourceforge.net/DTD/sodipodi-0.dtd"
   xmlns="http://www.w3.org/2000/svg"
   xmlns:svg="http://www.w3.org/2000/svg">
  <defs
     id="defs2" />
  <sodipodi:namedview
     id="namedview2"
     pagecolor="#505050"
     bordercolor="#eeeeee"
     borderopacity="1"
     inkscape:showpageshadow="0"
     inkscape:pageopacity="0"
     inkscape:pagecheckerboard="0"
     inkscape:deskcolor="#505050"
     inkscape:zoom="50"
     inkscape:cx="8"
     inkscape:cy="8"
     inkscape:window-width="1920"
     inkscape:window-height="1011"
     inkscape:window-x="0"
     inkscape:window-y="0"
     inkscape:window-maximized="1"
     inkscape:current-layer="svg2" />
  <path
     d="M6.445 11.688V6.354h-.633A13 13 0 0 0 4.5 7.16v.695c.375-.257.969-.62 1.258-.777h.012v4.61zm1.188-1.305c.047.64.594 1.406 1.703 1.406 1.258 0 2-1.066 2-2.871 0-1.934-.781-2.668-1.953-2.668-.926 0-1.797.672-1.797 1.809 0 1.16.824 1.77 1.676 1.77.746 0 1.23-.376 1.383-.79h.027c-.004 1.316-.461 2.164-1.305 2.164-.664 0-1.008-.45-1.05-.82zm2.953-2.317c0 .696-.559 1.18-1.184 1.18-.601 0-1.144-.383-1.144-1.2 0-.823.582-1.21 1.168-1.21.633 0 1.16.398 1.16 1.23"
     id="path1"
     style="fill:#ffffff" />
  <path
     d="M3.5 0a.5.5 0 0 1 .5.5V1h8V.5a.5.5 0 0 1 1 0V1h1a2 2 0 0 1 2 2v11a2 2 0 0 1-2 2H2a2 2 0 0 1-2-2V3a2 2 0 0 1 2-2h1V.5a.5.5 0 0 1 .5-.5M1 4v10a1 1 0 0 0 1 1h12a1 1 0 0 0 1-1V4z"
     id="path2"
     style="fill:#ffffff" />
</svg>
