<?xml version="1.0" encoding="UTF-8" standalone="no"?>
<svg
   width="16"
   height="16"
   fill="currentColor"
   class="bi bi-chat-quote-fill"
   viewBox="0 0 16 16"
   version="1.1"
   id="svg1"
   sodipodi:docname="chat-quote-fill.svg"
   inkscape:version="1.4 (e7c3feb100, 2024-10-09)"
   xmlns:inkscape="http://www.inkscape.org/namespaces/inkscape"
   xmlns:sodipodi="http://sodipodi.sourceforge.net/DTD/sodipodi-0.dtd"
   xmlns="http://www.w3.org/2000/svg"
   xmlns:svg="http://www.w3.org/2000/svg">
  <defs
     id="defs1" />
  <sodipodi:namedview
     id="namedview1"
     pagecolor="#505050"
     bordercolor="#eeeeee"
     borderopacity="1"
     inkscape:showpageshadow="0"
     inkscape:pageopacity="0"
     inkscape:pagecheckerboard="0"
     inkscape:deskcolor="#505050"
     inkscape:zoom="38.75"
     inkscape:cx="7.9870968"
     inkscape:cy="8"
     inkscape:window-width="1600"
     inkscape:window-height="831"
     inkscape:window-x="0"
     inkscape:window-y="0"
     inkscape:window-maximized="1"
     inkscape:current-layer="svg1" />
  <path
     d="M16 8c0 3.866-3.582 7-8 7a9 9 0 0 1-2.347-.306c-.584.296-1.925.864-4.181 1.234-.2.032-.352-.176-.273-.362.354-.836.674-1.95.77-2.966C.744 11.37 0 9.76 0 8c0-3.866 3.582-7 8-7s8 3.134 8 7M7.194 6.766a1.7 1.7 0 0 0-.227-.272 1.5 1.5 0 0 0-.469-.324l-.008-.004A1.8 1.8 0 0 0 5.734 6C4.776 6 4 6.746 4 7.667c0 .92.776 1.666 1.734 1.666.343 0 .662-.095.931-.26-.137.389-.39.804-.81 1.22a.405.405 0 0 0 .011.59c.173.16.447.155.614-.01 1.334-1.329 1.37-2.758.941-3.706a2.5 2.5 0 0 0-.227-.4zM11 9.073c-.136.389-.39.804-.81 1.22a.405.405 0 0 0 .012.59c.172.16.446.155.613-.01 1.334-1.329 1.37-2.758.942-3.706a2.5 2.5 0 0 0-.228-.4 1.7 1.7 0 0 0-.227-.273 1.5 1.5 0 0 0-.469-.324l-.008-.004A1.8 1.8 0 0 0 10.07 6c-.957 0-1.734.746-1.734 1.667 0 .92.777 1.666 1.734 1.666.343 0 .662-.095.931-.26z"
     id="path1"
     style="fill:#ffffff" />
</svg>
