<?xml version="1.0" encoding="UTF-8" standalone="no"?>
<svg
   width="16"
   height="16"
   fill="currentColor"
   class="bi bi-incognito"
   viewBox="0 0 16 16"
   version="1.1"
   id="svg1"
   sodipodi:docname="incognito.svg"
   inkscape:version="1.4.2 (ebf0e940d0, 2025-05-08)"
   xmlns:inkscape="http://www.inkscape.org/namespaces/inkscape"
   xmlns:sodipodi="http://sodipodi.sourceforge.net/DTD/sodipodi-0.dtd"
   xmlns="http://www.w3.org/2000/svg"
   xmlns:svg="http://www.w3.org/2000/svg">
  <defs
     id="defs1" />
  <sodipodi:namedview
     id="namedview1"
     pagecolor="#505050"
     bordercolor="#eeeeee"
     borderopacity="1"
     inkscape:showpageshadow="0"
     inkscape:pageopacity="0"
     inkscape:pagecheckerboard="0"
     inkscape:deskcolor="#505050"
     inkscape:zoom="33.9375"
     inkscape:cx="8"
     inkscape:cy="7.985267"
     inkscape:window-width="1600"
     inkscape:window-height="835"
     inkscape:window-x="0"
     inkscape:window-y="0"
     inkscape:window-maximized="1"
     inkscape:current-layer="svg1" />
  <path
     fill-rule="evenodd"
     d="m4.736 1.968-.892 3.269-.014.058C2.113 5.568 1 6.006 1 6.5 1 7.328 4.134 8 8 8s7-.672 7-1.5c0-.494-1.113-.932-2.83-1.205l-.014-.058-.892-3.27c-.146-.533-.698-.849-1.239-.734C9.411 1.363 8.62 1.5 8 1.5s-1.411-.136-2.025-.267c-.541-.115-1.093.2-1.239.735m.015 3.867a.25.25 0 0 1 .274-.224c.9.092 1.91.143 2.975.143a30 30 0 0 0 2.975-.143.25.25 0 0 1 .05.498c-.918.093-1.944.145-3.025.145s-2.107-.052-3.025-.145a.25.25 0 0 1-.224-.274M3.5 10h2a.5.5 0 0 1 .5.5v1a1.5 1.5 0 0 1-3 0v-1a.5.5 0 0 1 .5-.5m-1.5.5q.001-.264.085-.5H2a.5.5 0 0 1 0-1h3.5a1.5 1.5 0 0 1 1.488 1.312 3.5 3.5 0 0 1 2.024 0A1.5 1.5 0 0 1 10.5 9H14a.5.5 0 0 1 0 1h-.085q.084.236.085.5v1a2.5 2.5 0 0 1-5 0v-.14l-.21-.07a2.5 2.5 0 0 0-1.58 0l-.21.07v.14a2.5 2.5 0 0 1-5 0zm8.5-.5h2a.5.5 0 0 1 .5.5v1a1.5 1.5 0 0 1-3 0v-1a.5.5 0 0 1 .5-.5"
     id="path1"
     style="fill:#ffffff" />
</svg>
