<?xml version="1.0" encoding="UTF-8" standalone="no"?>
<svg
   width="16"
   height="16"
   fill="currentColor"
   class="bi bi-currency-dollar"
   viewBox="0 0 16 16"
   version="1.1"
   id="svg1"
   xmlns="http://www.w3.org/2000/svg"
   xmlns:svg="http://www.w3.org/2000/svg">
  <defs
     id="defs1" />
  <path
     d="m 4,10.781 c 0.148,1.667 1.513,2.85 3.591,3.003 V 15 h 1.043 v -1.216 c 2.27,-0.179 3.678,-1.438 3.678,-3.3 0,-1.59 -0.947,-2.51 -2.956,-3.028 L 8.634,7.269 V 3.467 c 1.122,0.11 1.879,0.714 2.07,1.616 h 1.47 C 12.008,3.483 10.634,2.335 8.634,2.208 V 1 H 7.591 v 1.233 c -1.939,0.23 -3.27,1.472 -3.27,3.156 0,1.454 0.966,2.483 2.661,2.917 l 0.61,0.162 v 4.031 c -1.149,-0.17 -1.94,-0.8 -2.131,-1.718 z M 7.391,6.945 C 6.348,6.682 5.791,6.12 5.791,5.329 c 0,-0.944 0.704,-1.641 1.8,-1.828 v 3.495 l -0.2,-0.05 z m 1.591,1.872 c 1.287,0.323 1.852,0.859 1.852,1.769 0,1.097 -0.826,1.828 -2.2,1.939 V 8.73 Z"
     id="path1"
     style="fill:#ffffff" />
</svg>
