<?xml version="1.0" encoding="UTF-8" standalone="no"?>
<svg
   width="16"
   height="16"
   fill="currentColor"
   class="bi bi-display"
   viewBox="0 0 16 16"
   version="1.1"
   id="svg1"
   sodipodi:docname="display.svg"
   inkscape:version="1.4 (e7c3feb100, 2024-10-09)"
   xmlns:inkscape="http://www.inkscape.org/namespaces/inkscape"
   xmlns:sodipodi="http://sodipodi.sourceforge.net/DTD/sodipodi-0.dtd"
   xmlns="http://www.w3.org/2000/svg"
   xmlns:svg="http://www.w3.org/2000/svg">
  <defs
     id="defs1" />
  <sodipodi:namedview
     id="namedview1"
     pagecolor="#505050"
     bordercolor="#eeeeee"
     borderopacity="1"
     inkscape:showpageshadow="0"
     inkscape:pageopacity="0"
     inkscape:pagecheckerboard="0"
     inkscape:deskcolor="#505050"
     inkscape:zoom="28.5"
     inkscape:cx="8"
     inkscape:cy="8"
     inkscape:window-width="1600"
     inkscape:window-height="831"
     inkscape:window-x="0"
     inkscape:window-y="0"
     inkscape:window-maximized="1"
     inkscape:current-layer="svg1" />
  <path
     d="M0 4s0-2 2-2h12s2 0 2 2v6s0 2-2 2h-4q0 1 .25 1.5H11a.5.5 0 0 1 0 1H5a.5.5 0 0 1 0-1h.75Q6 13 6 12H2s-2 0-2-2zm1.398-.855a.76.76 0 0 0-.254.302A1.5 1.5 0 0 0 1 4.01V10c0 .325.078.502.145.602q.105.156.302.254a1.5 1.5 0 0 0 .538.143L2.01 11H14c.325 0 .502-.078.602-.145a.76.76 0 0 0 .254-.302 1.5 1.5 0 0 0 .143-.538L15 9.99V4c0-.325-.078-.502-.145-.602a.76.76 0 0 0-.302-.254A1.5 1.5 0 0 0 13.99 3H2c-.325 0-.502.078-.602.145"
     id="path1"
     style="fill:#ffffff" />
</svg>
