<?xml version="1.0" encoding="UTF-8" standalone="no"?>
<svg
   width="16"
   height="16"
   fill="currentColor"
   class="bi bi-gem"
   viewBox="0 0 16 16"
   version="1.1"
   id="svg1"
   sodipodi:docname="gem.svg"
   inkscape:version="1.4.2 (ebf0e940d0, 2025-05-08)"
   xmlns:inkscape="http://www.inkscape.org/namespaces/inkscape"
   xmlns:sodipodi="http://sodipodi.sourceforge.net/DTD/sodipodi-0.dtd"
   xmlns="http://www.w3.org/2000/svg"
   xmlns:svg="http://www.w3.org/2000/svg">
  <defs
     id="defs1" />
  <sodipodi:namedview
     id="namedview1"
     pagecolor="#505050"
     bordercolor="#eeeeee"
     borderopacity="1"
     inkscape:showpageshadow="0"
     inkscape:pageopacity="0"
     inkscape:pagecheckerboard="0"
     inkscape:deskcolor="#505050"
     inkscape:zoom="36.1875"
     inkscape:cx="8"
     inkscape:cy="7.9861831"
     inkscape:window-width="1600"
     inkscape:window-height="831"
     inkscape:window-x="0"
     inkscape:window-y="0"
     inkscape:window-maximized="1"
     inkscape:current-layer="svg1" />
  <path
     d="M3.1.7a.5.5 0 0 1 .4-.2h9a.5.5 0 0 1 .4.2l2.976 3.974c.149.185.156.45.01.644L8.4 15.3a.5.5 0 0 1-.8 0L.1 5.3a.5.5 0 0 1 0-.6zm11.386 3.785-1.806-2.41-.776 2.413zm-3.633.004.961-2.989H4.186l.963 2.995zM5.47 5.495 8 13.366l2.532-7.876zm-1.371-.999-.78-2.422-1.818 2.425zM1.499 5.5l5.113 6.817-2.192-6.82zm7.889 6.817 5.123-6.83-2.928.002z"
     id="path1"
     style="fill:#ffffff" />
</svg>
