<?xml version="1.0" encoding="UTF-8" standalone="no"?>
<svg
   width="16"
   height="16"
   fill="currentColor"
   class="bi bi-list-task"
   viewBox="0 0 16 16"
   version="1.1"
   id="svg3"
   sodipodi:docname="list-task.svg"
   inkscape:version="1.4 (e7c3feb100, 2024-10-09)"
   xmlns:inkscape="http://www.inkscape.org/namespaces/inkscape"
   xmlns:sodipodi="http://sodipodi.sourceforge.net/DTD/sodipodi-0.dtd"
   xmlns="http://www.w3.org/2000/svg"
   xmlns:svg="http://www.w3.org/2000/svg">
  <defs
     id="defs3" />
  <sodipodi:namedview
     id="namedview3"
     pagecolor="#505050"
     bordercolor="#eeeeee"
     borderopacity="1"
     inkscape:showpageshadow="0"
     inkscape:pageopacity="0"
     inkscape:pagecheckerboard="0"
     inkscape:deskcolor="#505050"
     inkscape:zoom="38.75"
     inkscape:cx="7.9870968"
     inkscape:cy="8"
     inkscape:window-width="1600"
     inkscape:window-height="831"
     inkscape:window-x="0"
     inkscape:window-y="0"
     inkscape:window-maximized="1"
     inkscape:current-layer="svg3" />
  <path
     fill-rule="evenodd"
     d="M2 2.5a.5.5 0 0 0-.5.5v1a.5.5 0 0 0 .5.5h1a.5.5 0 0 0 .5-.5V3a.5.5 0 0 0-.5-.5zM3 3H2v1h1z"
     id="path1"
     style="fill:#ffffff" />
  <path
     d="M5 3.5a.5.5 0 0 1 .5-.5h9a.5.5 0 0 1 0 1h-9a.5.5 0 0 1-.5-.5M5.5 7a.5.5 0 0 0 0 1h9a.5.5 0 0 0 0-1zm0 4a.5.5 0 0 0 0 1h9a.5.5 0 0 0 0-1z"
     id="path2"
     style="fill:#ffffff" />
  <path
     fill-rule="evenodd"
     d="M1.5 7a.5.5 0 0 1 .5-.5h1a.5.5 0 0 1 .5.5v1a.5.5 0 0 1-.5.5H2a.5.5 0 0 1-.5-.5zM2 7h1v1H2zm0 3.5a.5.5 0 0 0-.5.5v1a.5.5 0 0 0 .5.5h1a.5.5 0 0 0 .5-.5v-1a.5.5 0 0 0-.5-.5zm1 .5H2v1h1z"
     id="path3"
     style="fill:#ffffff" />
</svg>
