<?xml version="1.0" encoding="UTF-8" standalone="no"?>
<svg
   width="16"
   height="16"
   fill="currentColor"
   class="bi bi-megaphone-fill"
   viewBox="0 0 16 16"
   version="1.1"
   id="svg1"
   sodipodi:docname="megaphone-fill.svg"
   inkscape:version="1.4 (e7c3feb100, 2024-10-09)"
   xmlns:inkscape="http://www.inkscape.org/namespaces/inkscape"
   xmlns:sodipodi="http://sodipodi.sourceforge.net/DTD/sodipodi-0.dtd"
   xmlns="http://www.w3.org/2000/svg"
   xmlns:svg="http://www.w3.org/2000/svg">
  <defs
     id="defs1" />
  <sodipodi:namedview
     id="namedview1"
     pagecolor="#505050"
     bordercolor="#eeeeee"
     borderopacity="1"
     inkscape:showpageshadow="0"
     inkscape:pageopacity="0"
     inkscape:pagecheckerboard="0"
     inkscape:deskcolor="#505050"
     inkscape:zoom="38.75"
     inkscape:cx="7.9870968"
     inkscape:cy="8"
     inkscape:window-width="1600"
     inkscape:window-height="831"
     inkscape:window-x="0"
     inkscape:window-y="0"
     inkscape:window-maximized="1"
     inkscape:current-layer="svg1" />
  <path
     d="M13 2.5a1.5 1.5 0 0 1 3 0v11a1.5 1.5 0 0 1-3 0zm-1 .724c-2.067.95-4.539 1.481-7 1.656v6.237a25 25 0 0 1 1.088.085c2.053.204 4.038.668 5.912 1.56zm-8 7.841V4.934c-.68.027-1.399.043-2.008.053A2.02 2.02 0 0 0 0 7v2c0 1.106.896 1.996 1.994 2.009l.496.008a64 64 0 0 1 1.51.048m1.39 1.081q.428.032.85.078l.253 1.69a1 1 0 0 1-.983 1.187h-.548a1 1 0 0 1-.916-.599l-1.314-2.48a66 66 0 0 1 1.692.064q.491.026.966.06"
     id="path1"
     style="fill:#ffffff"
     inkscape:export-filename="megaphone-fill-black.svg"
     inkscape:export-xdpi="96"
     inkscape:export-ydpi="96" />
</svg>
