<?xml version="1.0" encoding="UTF-8" standalone="no"?>
<svg
   width="16.004488"
   height="10.002725"
   fill="currentColor"
   class="bi bi-cash-coin"
   viewBox="0 0 16.004488 10.002725"
   version="1.1"
   id="svg4"
   xmlns="http://www.w3.org/2000/svg"
   xmlns:svg="http://www.w3.org/2000/svg">
  <defs
     id="defs4" />
  <path
     d="M 1,0 A 1,1 0 0 0 0,1 v 8 a 1,1 0 0 0 1,1 H 5.083 Q 5.171,9.483 5.341,9 H 3 A 2,2 0 0 0 1,7 V 3 A 2,2 0 0 0 3,1 h 10 a 2,2 0 0 0 2,2 v 3.528 c 0.38,0.34 0.717,0.728 1,1.154 V 1 A 1,1 0 0 0 15,0 Z"
     id="path3"
     style="fill:#ffffff" />
  <path
     d="m 1.0044886,10.002725 a 1,1 0 0 1 -1,-1 v -8 a 1,1 0 0 1 1,-1 h 4.0830001 q 0.088,0.517 0.258,1 h -2.341 a 2,2 0 0 1 -2.0000001,2 v 4 a 2,2 0 0 1 2.0000001,2 h 9.9999993 a 2,2 0 0 1 2,-2 v -3.528 c 0.38,-0.34 0.717,-0.728 1,-1.154 v 6.682 a 1,1 0 0 1 -1,1 z"
     id="path3-6"
     style="fill:#ffffff" />
  <circle
     style="display:inline;fill:#ffffff;stroke-width:49.608;paint-order:markers stroke fill"
     id="path5"
     cx="8"
     cy="4.9823394"
     r="2" />
</svg>
