<?xml version="1.0" encoding="UTF-8" standalone="no"?>
<svg
   width="16"
   height="16"
   fill="currentColor"
   class="bi bi-motherboard"
   viewBox="0 0 16 16"
   version="1.1"
   id="svg2"
   sodipodi:docname="motherboard.svg"
   inkscape:version="1.4 (e7c3feb100, 2024-10-09)"
   xmlns:inkscape="http://www.inkscape.org/namespaces/inkscape"
   xmlns:sodipodi="http://sodipodi.sourceforge.net/DTD/sodipodi-0.dtd"
   xmlns="http://www.w3.org/2000/svg"
   xmlns:svg="http://www.w3.org/2000/svg">
  <defs
     id="defs2" />
  <sodipodi:namedview
     id="namedview2"
     pagecolor="#505050"
     bordercolor="#eeeeee"
     borderopacity="1"
     inkscape:showpageshadow="0"
     inkscape:pageopacity="0"
     inkscape:pagecheckerboard="0"
     inkscape:deskcolor="#505050"
     inkscape:zoom="28.5"
     inkscape:cx="8"
     inkscape:cy="8"
     inkscape:window-width="1600"
     inkscape:window-height="831"
     inkscape:window-x="0"
     inkscape:window-y="0"
     inkscape:window-maximized="1"
     inkscape:current-layer="svg2" />
  <path
     d="M11.5 2a.5.5 0 0 1 .5.5v7a.5.5 0 0 1-1 0v-7a.5.5 0 0 1 .5-.5m2 0a.5.5 0 0 1 .5.5v7a.5.5 0 0 1-1 0v-7a.5.5 0 0 1 .5-.5m-10 8a.5.5 0 0 0 0 1h6a.5.5 0 0 0 0-1zm0 2a.5.5 0 0 0 0 1h6a.5.5 0 0 0 0-1zM5 3a1 1 0 0 0-1 1h-.5a.5.5 0 0 0 0 1H4v1h-.5a.5.5 0 0 0 0 1H4a1 1 0 0 0 1 1v.5a.5.5 0 0 0 1 0V8h1v.5a.5.5 0 0 0 1 0V8a1 1 0 0 0 1-1h.5a.5.5 0 0 0 0-1H9V5h.5a.5.5 0 0 0 0-1H9a1 1 0 0 0-1-1v-.5a.5.5 0 0 0-1 0V3H6v-.5a.5.5 0 0 0-1 0zm0 1h3v3H5zm6.5 7a.5.5 0 0 0-.5.5v1a.5.5 0 0 0 .5.5h2a.5.5 0 0 0 .5-.5v-1a.5.5 0 0 0-.5-.5z"
     id="path1"
     style="fill:#ffffff" />
  <path
     d="M1 2a2 2 0 0 1 2-2h11a2 2 0 0 1 2 2v11a2 2 0 0 1-2 2H3a2 2 0 0 1-2-2v-2H.5a.5.5 0 0 1-.5-.5v-1A.5.5 0 0 1 .5 9H1V8H.5a.5.5 0 0 1-.5-.5v-1A.5.5 0 0 1 .5 6H1V5H.5a.5.5 0 0 1-.5-.5v-2A.5.5 0 0 1 .5 2zm1 11a1 1 0 0 0 1 1h11a1 1 0 0 0 1-1V2a1 1 0 0 0-1-1H3a1 1 0 0 0-1 1z"
     id="path2"
     style="fill:#ffffff" />
</svg>
