<?xml version="1.0" encoding="UTF-8" standalone="no"?>
<svg
   width="16"
   height="16"
   fill="currentColor"
   class="bi bi-palette-fill"
   viewBox="0 0 16 16"
   version="1.1"
   id="svg1"
   sodipodi:docname="palette-fill.svg"
   inkscape:version="1.4 (e7c3feb100, 2024-10-09)"
   xmlns:inkscape="http://www.inkscape.org/namespaces/inkscape"
   xmlns:sodipodi="http://sodipodi.sourceforge.net/DTD/sodipodi-0.dtd"
   xmlns="http://www.w3.org/2000/svg"
   xmlns:svg="http://www.w3.org/2000/svg">
  <defs
     id="defs1" />
  <sodipodi:namedview
     id="namedview1"
     pagecolor="#505050"
     bordercolor="#eeeeee"
     borderopacity="1"
     inkscape:showpageshadow="0"
     inkscape:pageopacity="0"
     inkscape:pagecheckerboard="0"
     inkscape:deskcolor="#505050"
     inkscape:zoom="16.75"
     inkscape:cx="8"
     inkscape:cy="8"
     inkscape:window-width="1600"
     inkscape:window-height="831"
     inkscape:window-x="0"
     inkscape:window-y="0"
     inkscape:window-maximized="1"
     inkscape:current-layer="svg1" />
  <path
     d="M12.433 10.07C14.133 10.585 16 11.15 16 8a8 8 0 1 0-8 8c1.996 0 1.826-1.504 1.649-3.08-.124-1.101-.252-2.237.351-2.92.465-.527 1.42-.237 2.433.07M8 5a1.5 1.5 0 1 1 0-3 1.5 1.5 0 0 1 0 3m4.5 3a1.5 1.5 0 1 1 0-3 1.5 1.5 0 0 1 0 3M5 6.5a1.5 1.5 0 1 1-3 0 1.5 1.5 0 0 1 3 0m.5 6.5a1.5 1.5 0 1 1 0-3 1.5 1.5 0 0 1 0 3"
     id="path1"
     style="fill:#ffffff" />
</svg>
