<?xml version="1.0" encoding="UTF-8" standalone="no"?>
<svg
   width="16"
   height="16"
   fill="currentColor"
   class="bi bi-person-raised-hand"
   viewBox="0 0 16 16"
   version="1.1"
   id="svg2"
   sodipodi:docname="person-raised-hand.svg"
   inkscape:version="1.4.2 (ebf0e940d0, 2025-05-08)"
   xmlns:inkscape="http://www.inkscape.org/namespaces/inkscape"
   xmlns:sodipodi="http://sodipodi.sourceforge.net/DTD/sodipodi-0.dtd"
   xmlns="http://www.w3.org/2000/svg"
   xmlns:svg="http://www.w3.org/2000/svg">
  <defs
     id="defs2" />
  <sodipodi:namedview
     id="namedview2"
     pagecolor="#505050"
     bordercolor="#eeeeee"
     borderopacity="1"
     inkscape:showpageshadow="0"
     inkscape:pageopacity="0"
     inkscape:pagecheckerboard="0"
     inkscape:deskcolor="#505050"
     inkscape:zoom="33.9375"
     inkscape:cx="8"
     inkscape:cy="7.985267"
     inkscape:window-width="1600"
     inkscape:window-height="831"
     inkscape:window-x="0"
     inkscape:window-y="0"
     inkscape:window-maximized="1"
     inkscape:current-layer="svg2" />
  <path
     d="M6 6.207v9.043a.75.75 0 0 0 1.5 0V10.5a.5.5 0 0 1 1 0v4.75a.75.75 0 0 0 1.5 0v-8.5a.25.25 0 1 1 .5 0v2.5a.75.75 0 0 0 1.5 0V6.5a3 3 0 0 0-3-3H6.236a1 1 0 0 1-.447-.106l-.33-.165A.83.83 0 0 1 5 2.488V.75a.75.75 0 0 0-1.5 0v2.083c0 .715.404 1.37 1.044 1.689L5.5 5c.32.32.5.754.5 1.207"
     id="path1"
     style="fill:#ffffff" />
  <path
     d="M8 3a1.5 1.5 0 1 0 0-3 1.5 1.5 0 0 0 0 3"
     id="path2"
     style="fill:#ffffff" />
</svg>
