<?xml version="1.0" encoding="UTF-8" standalone="no"?>
<svg
   width="16"
   height="16"
   fill="currentColor"
   class="bi bi-question"
   viewBox="0 0 16 16"
   version="1.1"
   id="svg1"
   sodipodi:docname="question.svg"
   inkscape:version="1.4.2 (ebf0e940d0, 2025-05-08)"
   xmlns:inkscape="http://www.inkscape.org/namespaces/inkscape"
   xmlns:sodipodi="http://sodipodi.sourceforge.net/DTD/sodipodi-0.dtd"
   xmlns="http://www.w3.org/2000/svg"
   xmlns:svg="http://www.w3.org/2000/svg">
  <defs
     id="defs1" />
  <sodipodi:namedview
     id="namedview1"
     pagecolor="#505050"
     bordercolor="#eeeeee"
     borderopacity="1"
     inkscape:showpageshadow="0"
     inkscape:pageopacity="0"
     inkscape:pagecheckerboard="0"
     inkscape:deskcolor="#505050"
     inkscape:zoom="28.5"
     inkscape:cx="8.0175439"
     inkscape:cy="8"
     inkscape:window-width="1600"
     inkscape:window-height="831"
     inkscape:window-x="0"
     inkscape:window-y="0"
     inkscape:window-maximized="1"
     inkscape:current-layer="svg1" />
  <path
     d="m 3.1779556,4.1709912 a 0.42148975,0.42148975 0 0 0 0.4286036,0.4392741 h 1.467211 c 0.2454244,0 0.4410525,-0.2009634 0.4730644,-0.4446094 0.1600595,-1.1666552 0.9603565,-2.0167485 2.3866636,-2.0167485 1.2200082,0 2.3368678,0.6100042 2.3368678,2.0772154 0,1.1293079 -0.6651364,1.6486117 -1.7161931,2.438238 -1.1968887,0.8696561 -2.144796,1.8851441 -2.0772153,3.5337562 l 0.00534,0.385921 a 0.44460944,0.44460944 0 0 0 0.4446045,0.437496 h 1.442313 a 0.44460944,0.44460944 0 0 0 0.4446094,-0.444609 v -0.186736 c 0,-1.2769193 0.4855135,-1.6486128 1.7962225,-2.6427595 1.083069,-0.8234167 2.212376,-1.7375337 2.212376,-3.656468 0,-2.6872195 -2.269286,-3.985479 -4.7537639,-3.985479 -2.2532806,0 -4.7217523,1.0492783 -4.8907038,4.0655087 M 5.9469812,14.420128 c 0,0.947907 0.7558359,1.648611 1.796222,1.648611 1.0830687,0 1.828234,-0.700704 1.828234,-1.648611 0,-0.981698 -0.7469437,-1.671732 -1.8300124,-1.671732 -1.0386077,0 -1.7944436,0.690034 -1.7944436,1.671732"
     id="path1"
     style="fill:#ffffff;stroke-width:1.77844" />
</svg>
