<?xml version="1.0" encoding="UTF-8" standalone="no"?>
<!-- Created with Inkscape (http://www.inkscape.org/) -->

<svg
   version="1.1"
   id="svg1"
   width="1310.72"
   height="1310.72"
   viewBox="0 0 1310.72 1310.72"
   sodipodi:docname="shirt.svg"
   inkscape:version="1.4 (e7c3feb100, 2024-10-09)"
   xmlns:inkscape="http://www.inkscape.org/namespaces/inkscape"
   xmlns:sodipodi="http://sodipodi.sourceforge.net/DTD/sodipodi-0.dtd"
   xmlns="http://www.w3.org/2000/svg"
   xmlns:svg="http://www.w3.org/2000/svg">
  <defs
     id="defs1" />
  <sodipodi:namedview
     id="namedview1"
     pagecolor="#505050"
     bordercolor="#eeeeee"
     borderopacity="1"
     inkscape:showpageshadow="0"
     inkscape:pageopacity="0"
     inkscape:pagecheckerboard="0"
     inkscape:deskcolor="#505050"
     inkscape:zoom="0.34790041"
     inkscape:cx="655.35997"
     inkscape:cy="655.35997"
     inkscape:window-width="1600"
     inkscape:window-height="831"
     inkscape:window-x="0"
     inkscape:window-y="0"
     inkscape:window-maximized="1"
     inkscape:current-layer="g1">
    <inkscape:page
       x="0"
       y="0"
       width="1310.72"
       height="1310.72"
       id="page2"
       margin="0"
       bleed="0" />
  </sodipodi:namedview>
  <g
     inkscape:groupmode="layer"
     inkscape:label="Image"
     id="g1">
    <path
       style="fill:#ffffff"
       d="m 440.79916,1208.0467 c -30.93041,-2.072 -61.14211,-14.6886 -84.64,-35.3462 -4.43756,-3.9012 -12.26411,-11.9291 -15.8476,-16.2552 -19.3517,-23.3623 -30.66695,-51.7105 -32.78328,-82.1323 -0.21255,-3.0554 -0.32387,-85.86379 -0.32595,-242.47999 l -0.003,-237.84 h -36.4 c -22.21371,0 -37.89657,-0.1316 -40.24,-0.3325 -40.0711,-3.4354 -73.08961,-31.7872 -82.27065,-70.643 -0.91811,-3.8856 -31.20511,-184.68389 -31.95378,-190.74817 -1.26735,-10.26559 -1.27011,-23.60597 -0.007,-33.9861 3.47555,-28.5625 15.4904,-55.54108 34.40174,-77.24694 3.41682,-3.92173 10.98372,-11.42095 14.86974,-14.73675 11.56495,-9.86797 25.33149,-18.19177 39.58147,-23.93255 2.34219,-0.94358 56.38652,-19.08275 120.09852,-40.30928 125.2223,-41.72253 118.45493,-39.58442 125.28,-39.58442 3.77854,0 8.84742,0.83032 12.62685,2.06837 6.50246,2.13004 11.15246,5.01545 16.21432,10.06125 8.20612,8.18009 12.10891,17.93771 12.12378,30.31144 0.0142,11.82246 1.80582,25.97555 4.82713,38.13264 16.28303,65.51938 71.83281,114.7701 138.67227,122.94755 42.22766,5.16633 84.06965,-5.82398 117.93564,-30.97725 30.4624,-22.62532 52.35376,-55.4151 61.40437,-91.974 3.02654,-12.22534 4.81653,-26.35387 4.83068,-38.12894 0.0149,-12.36809 3.90895,-22.10739 12.12379,-30.32223 3.41792,-3.41793 6.84414,-5.91887 10.89041,-7.9494 4.87598,-2.4469 12.29206,-4.16943 17.95075,-4.16943 6.8285,0 0.0194,-2.15212 125.6,39.69787 63.88804,21.29081 117.96004,39.43621 120.16004,40.32312 13.7743,5.55299 27.798,14.06873 39.2,23.80382 6.896,5.88784 15.6578,15.18823 21.0966,22.39324 14.9444,19.79772 24.4379,42.72212 27.8379,67.22194 1.7144,12.35352 1.7119,26.38283 -0.01,38.72 -1.2837,9.2136 -30.9842,185.77002 -31.827,189.19732 -3.1779,12.9242 -9.5727,25.8153 -17.9275,36.1399 -3.0074,3.7164 -10.2297,10.8481 -14.053,13.8765 -11.0361,8.7418 -24.4935,15.1163 -38.0948,18.0449 -9.0608,1.9509 -7.5443,1.8896 -49.8223,2.0149 l -38.7971,0.115 -0.089,240.7058 c -0.084,227.77319 -0.1194,240.95309 -0.654,245.31039 -2.6956,21.9732 -8.97756,40.7656 -19.53372,58.4353 -10.97844,18.3765 -25.69369,33.8291 -43.56902,45.7519 -19.4734,12.9887 -39.9273,20.417 -64.51529,23.4302 -4.35329,0.5335 -16.23244,0.5666 -217.5647,0.6066 -117.128,0.023 -214.688,-0.074 -216.8,-0.215 z m 425.91999,-81.9078 c 14.43036,-1.6473 26.89533,-7.7042 37.12,-18.0371 9.87872,-9.9833 15.81846,-22.4276 17.42597,-36.5088 0.22238,-1.948 0.32963,-86.75199 0.3314,-262.03899 0.003,-287.1089 -0.18847,-262.2503 2.0722,-269.1515 2.10041,-6.412 5.11746,-11.2789 10.04926,-16.2107 4.8042,-4.8042 9.68875,-7.8749 15.76473,-9.9105 6.44354,-2.1588 1.44636,-1.9946 66.67649,-2.1905 l 59.2,-0.1778 1.8248,-0.8961 c 2.2517,-1.1058 4.5172,-3.5514 5.1814,-5.59344 0.6949,-2.1366 30.4976,-180.84979 30.9362,-185.51048 0.5707,-6.06554 -0.1125,-13.59146 -1.8277,-20.13092 -4.5558,-17.36966 -16.5973,-31.99811 -32.7547,-39.79153 -2.9101,-1.40365 -22.514,-8.05425 -93.69758,-31.78679 -59.77474,-19.92884 -90.06148,-29.88392 -90.14838,-29.63125 -0.072,0.20927 -0.3581,1.3885 -0.63584,2.6205 -1.76568,7.83198 -5.78239,20.74496 -9.3567,30.07999 -26.14899,68.29345 -81.59255,121.55717 -150.96155,145.02631 -46.48618,15.72735 -97.51804,17.04646 -144.95999,3.74705 -74.16805,-20.79154 -134.35137,-75.33763 -162.55997,-147.33336 -3.71727,-9.48743 -7.70078,-22.05223 -9.73939,-30.71999 -0.39324,-1.672 -0.76687,-3.21123 -0.83029,-3.4205 -0.0756,-0.24955 -31.10162,9.94957 -90.15126,29.63526 -96.30369,32.10528 -93.55016,31.12988 -100.37067,35.55467 -12.57793,8.1599 -21.87751,20.80481 -25.79171,35.06972 -1.70636,6.21865 -2.20262,10.02554 -2.18491,16.76084 l 0.0156,5.92 15.25694,91.2 c 8.39132,50.16 15.47832,91.87971 15.74888,92.71048 0.66511,2.0422 2.93104,4.48804 5.18199,5.59344 l 1.82483,0.8961 59.2,0.1778 c 65.22677,0.1959 60.2335,0.032 66.67292,2.1893 6.17071,2.0674 10.82846,4.9984 15.76825,9.9225 4.92768,4.912 7.94499,9.7761 10.04927,16.1999 2.26073,6.9014 2.06956,-17.9664 2.06956,269.2151 0,280.37099 -0.1081,262.01289 1.58556,269.27169 1.96187,8.4083 6.07142,16.8912 11.65769,24.0637 2.19241,2.8149 7.34031,7.9432 10.27675,10.2375 9.22114,7.2048 19.93151,11.642 31.2,12.926 3.58176,0.4081 419.30834,0.4302 422.87999,0.022 z"
       id="path1" />
  </g>
</svg>
