<?xml version="1.0" encoding="UTF-8" standalone="no"?>
<svg
   width="16"
   height="16"
   fill="currentColor"
   class="bi bi-shop"
   viewBox="0 0 16 16"
   version="1.1"
   id="svg1"
   sodipodi:docname="shop.svg"
   inkscape:version="1.4.2 (ebf0e940d0, 2025-05-08)"
   xmlns:inkscape="http://www.inkscape.org/namespaces/inkscape"
   xmlns:sodipodi="http://sodipodi.sourceforge.net/DTD/sodipodi-0.dtd"
   xmlns="http://www.w3.org/2000/svg"
   xmlns:svg="http://www.w3.org/2000/svg">
  <sodipodi:namedview
     id="namedview1"
     pagecolor="#505050"
     bordercolor="#eeeeee"
     borderopacity="1"
     inkscape:showpageshadow="0"
     inkscape:pageopacity="0"
     inkscape:pagecheckerboard="0"
     inkscape:deskcolor="#505050"
     inkscape:zoom="38.75"
     inkscape:cx="14.296774"
     inkscape:cy="8"
     inkscape:window-width="1600"
     inkscape:window-height="831"
     inkscape:window-x="0"
     inkscape:window-y="0"
     inkscape:window-maximized="1"
     inkscape:current-layer="svg1" />
  <defs
     id="defs1" />
  <path
     d="M 3.2340359,1.2253194 A 0.94750777,0.94750777 0 0 1 3.9541417,0.89369162 h 8.0917163 a 0.94750777,0.94750777 0 0 1 0.720105,0.33162778 l 2.472049,2.8842136 a 1.4212617,1.4212617 0 0 1 0.342049,0.9247676 V 5.275915 A 2.2503309,2.2503309 0 0 1 11.553155,6.6573814 2.2455933,2.2455933 0 0 1 9.7765765,7.5262459 2.2455933,2.2455933 0 0 1 7.9999999,6.6573814 2.2455933,2.2455933 0 0 1 6.2234229,7.5262459 2.2455933,2.2455933 0 0 1 4.4468457,6.6573814 2.2503309,2.2503309 0 0 1 0.41993777,5.275915 V 5.0343006 A 1.4212617,1.4212617 0 0 1 0.7619881,4.109533 Z M 4.9205997,5.275915 a 1.3028231,1.3028231 0 0 0 2.6056462,0 0.47375397,0.47375397 0 0 1 0.9475079,0 1.3028234,1.3028234 0 0 0 2.6056462,0 0.473754,0.473754 0 0 1 0.947508,0 1.3028231,1.3028231 0 1 0 2.605646,0 V 5.0343006 a 0.47375388,0.47375388 0 0 0 -0.113701,-0.30794 L 12.045858,1.8411994 H 3.9541417 L 1.4811465,4.7263606 a 0.47375388,0.47375388 0 0 0 -0.1137007,0.30794 V 5.275915 a 1.3028232,1.3028232 0 0 0 2.6056463,0 0.47375391,0.47375391 0 0 1 0.9475078,0 M 1.8411995,7.9999999 A 0.47375388,0.47375388 0 0 1 2.3149534,8.4737535 V 14.1588 H 3.2624612 V 9.421261 A 0.94750777,0.94750777 0 0 1 4.2099688,8.4737535 H 7.0524921 A 0.94750777,0.94750777 0 0 1 7.9999999,9.421261 V 14.1588 H 13.685046 V 8.4737535 a 0.473754,0.473754 0 0 1 0.947508,0 V 14.1588 h 0.473754 a 0.473754,0.473754 0 0 1 0,0.947508 H 0.89369177 a 0.473754,0.473754 0 0 1 0,-0.947508 H 1.3674456 V 8.4737535 A 0.47375388,0.47375388 0 0 1 1.8411995,7.9999999 M 4.2099688,14.1588 H 7.0524921 V 9.421261 H 4.2099688 Z M 8.9475074,9.421261 A 0.94750777,0.94750777 0 0 1 9.8950153,8.4737535 h 1.8950157 a 0.94750777,0.94750777 0 0 1 0.947506,0.9475075 v 2.842523 a 0.94750777,0.94750777 0 0 1 -0.947506,0.947508 H 9.8950153 A 0.94750777,0.94750777 0 0 1 8.9475074,12.263784 Z m 2.8425236,0 H 9.8950153 v 2.842523 h 1.8950157 z"
     id="path1"
     style="fill:#ffffff;stroke-width:0.947508" />
</svg>
