<?xml version="1.0" encoding="UTF-8" standalone="no"?>
<svg
   width="16"
   height="16"
   fill="currentColor"
   class="bi bi-soundwave"
   viewBox="0 0 16 16"
   version="1.1"
   id="svg1"
   xmlns="http://www.w3.org/2000/svg"
   xmlns:svg="http://www.w3.org/2000/svg">
  <defs
     id="defs1" />
  <path
     fill-rule="evenodd"
     d="M 8.5,2 A 0.5,0.5 0 0 1 9,2.5 v 11 a 0.5,0.5 0 0 1 -1,0 V 2.5 A 0.5,0.5 0 0 1 8.5,2 m -2,2 A 0.5,0.5 0 0 1 7,4.5 v 7 a 0.5,0.5 0 0 1 -1,0 v -7 A 0.5,0.5 0 0 1 6.5,4 m 4,0 A 0.5,0.5 0 0 1 11,4.5 v 7 a 0.5,0.5 0 0 1 -1,0 v -7 A 0.5,0.5 0 0 1 10.5,4 m -6,1.5 A 0.5,0.5 0 0 1 5,6 v 4 A 0.5,0.5 0 0 1 4,10 V 6 A 0.5,0.5 0 0 1 4.5,5.5 m 8,0 A 0.5,0.5 0 0 1 13,6 v 4 a 0.5,0.5 0 0 1 -1,0 V 6 a 0.5,0.5 0 0 1 0.5,-0.5 m -10,1 A 0.5,0.5 0 0 1 3,7 V 9 A 0.5,0.5 0 0 1 2,9 V 7 A 0.5,0.5 0 0 1 2.5,6.5 m 12,0 A 0.5,0.5 0 0 1 15,7 V 9 A 0.5,0.5 0 0 1 14,9 V 7 a 0.5,0.5 0 0 1 0.5,-0.5"
     id="path1"
     style="fill:#ffffff" />
</svg>
