<?xml version="1.0" encoding="UTF-8" standalone="no"?>
<!-- Created with Inkscape (http://www.inkscape.org/) -->

<svg
   version="1.1"
   id="svg1"
   width="486.65347"
   height="486.65347"
   viewBox="0 0 486.65347 486.65347"
   xmlns="http://www.w3.org/2000/svg"
   xmlns:svg="http://www.w3.org/2000/svg">
  <defs
     id="defs1" />
  <g
     id="g1"
     style="fill:#ffffff">
    <path
       style="fill:#ffffff;stroke:none"
       d="m 226.41938,97.820527 c -21.16189,2.778533 -41.39205,5.644983 -61.78219,12.442993 -59.86573,19.95903 -110.413302,64.92486 -138.537588,121.17344 -15.347338,30.69469 -24.3572611,64.51851 -25.86065312,98.85149 -0.744997,17.01351 5.62599402,36.29709 26.57645812,34.0528 27.358695,-2.93076 21.247802,-37.5197 24.478181,-56.86468 7.67358,-45.95288 33.011266,-87.78229 68.670332,-117.44776 39.07933,-32.51085 89.40029,-47.49748 139.72278,-44.05133 14.77845,1.01205 29.6353,4.27819 43.72278,8.79646 10.9952,3.52647 20.87823,9.02152 32.31683,3.55191 18.01067,-8.6122 16.62821,-35.33325 -0.9505,-43.37881 C 303.22833,100.50815 260.94946,93.286763 226.41938,97.820527 M 395.6075,156.95804 c -15.13381,4.01294 -30.746,15.71806 -44.67327,22.9065 -35.12458,18.12925 -70.15256,36.51301 -105.50495,54.18921 -22.02316,11.01159 -48.45212,20.87156 -62.6476,42.05648 -37.26053,55.60651 15.66994,128.12501 79.75651,111.70371 31.28964,-8.01754 44.89688,-34.69145 58.21489,-61.32747 18.97811,-37.95622 38.98904,-75.40355 58.45031,-113.10892 7.65136,-14.82413 15.71142,-29.58096 22.80823,-44.67326 2.682,-5.70361 2.15355,-14.01545 -6.40412,-11.74625 m 31.36633,50.26917 c -10.90775,2.51727 -18.96401,14.00469 -17.77044,25.16025 0.89892,8.40153 6.16186,15.38785 9.70443,22.81188 5.25227,11.00698 9.80799,22.40428 12.92848,34.21782 3.19739,12.10466 5.60206,24.56465 6.4584,37.06931 0.56949,8.31596 -0.85939,16.88129 2.86027,24.71287 4.60498,9.69561 16.28544,15.07069 26.69015,12.81407 20.17661,-4.37599 19.25373,-24.27112 18.14448,-40.37843 -2.19535,-31.87865 -10.27824,-63.52235 -24.61607,-92.19802 -7.06678,-14.1336 -16.18014,-28.41443 -34.3997,-24.20975 m -190.09901,79.64797 c 39.23884,-6.55493 52.93925,53.5512 13.30693,61.02823 -40.01737,7.54966 -53.54955,-54.30562 -13.30693,-61.02823 z"
       id="path1" />
  </g>
</svg>
