<?xml version="1.0" encoding="UTF-8" standalone="no"?>
<svg
   width="16"
   height="16"
   fill="currentColor"
   class="bi bi-watch"
   viewBox="0 0 16 16"
   version="1.1"
   id="svg2"
   sodipodi:docname="watch.svg"
   inkscape:version="1.4 (e7c3feb100, 2024-10-09)"
   xmlns:inkscape="http://www.inkscape.org/namespaces/inkscape"
   xmlns:sodipodi="http://sodipodi.sourceforge.net/DTD/sodipodi-0.dtd"
   xmlns="http://www.w3.org/2000/svg"
   xmlns:svg="http://www.w3.org/2000/svg">
  <defs
     id="defs2" />
  <sodipodi:namedview
     id="namedview2"
     pagecolor="#505050"
     bordercolor="#eeeeee"
     borderopacity="1"
     inkscape:showpageshadow="0"
     inkscape:pageopacity="0"
     inkscape:pagecheckerboard="0"
     inkscape:deskcolor="#505050"
     inkscape:zoom="28.5"
     inkscape:cx="8"
     inkscape:cy="8"
     inkscape:window-width="1600"
     inkscape:window-height="831"
     inkscape:window-x="0"
     inkscape:window-y="0"
     inkscape:window-maximized="1"
     inkscape:current-layer="svg2" />
  <path
     d="M8.5 5a.5.5 0 0 0-1 0v2.5H6a.5.5 0 0 0 0 1h2a.5.5 0 0 0 .5-.5z"
     id="path1"
     style="fill:#ffffff" />
  <path
     d="M5.667 16C4.747 16 4 15.254 4 14.333v-1.86A6 6 0 0 1 2 8c0-1.777.772-3.374 2-4.472V1.667C4 .747 4.746 0 5.667 0h4.666C11.253 0 12 .746 12 1.667v1.86a6 6 0 0 1 1.918 3.48.502.502 0 0 1 .582.493v1a.5.5 0 0 1-.582.493A6 6 0 0 1 12 12.473v1.86c0 .92-.746 1.667-1.667 1.667zM13 8A5 5 0 1 0 3 8a5 5 0 0 0 10 0"
     id="path2"
     style="fill:#ffffff" />
</svg>
