<?xml version="1.0" encoding="UTF-8" standalone="no"?>
<svg
   width="16"
   height="16"
   fill="currentColor"
   class="bi bi-window-fullscreen"
   viewBox="0 0 16 16"
   version="1.1"
   id="svg2"
   sodipodi:docname="window-fullscreen.svg"
   inkscape:version="1.4 (e7c3feb100, 2024-10-09)"
   xmlns:inkscape="http://www.inkscape.org/namespaces/inkscape"
   xmlns:sodipodi="http://sodipodi.sourceforge.net/DTD/sodipodi-0.dtd"
   xmlns="http://www.w3.org/2000/svg"
   xmlns:svg="http://www.w3.org/2000/svg">
  <defs
     id="defs2" />
  <sodipodi:namedview
     id="namedview2"
     pagecolor="#505050"
     bordercolor="#eeeeee"
     borderopacity="1"
     inkscape:showpageshadow="0"
     inkscape:pageopacity="0"
     inkscape:pagecheckerboard="0"
     inkscape:deskcolor="#505050"
     inkscape:zoom="16.75"
     inkscape:cx="8"
     inkscape:cy="8"
     inkscape:window-width="1600"
     inkscape:window-height="831"
     inkscape:window-x="0"
     inkscape:window-y="0"
     inkscape:window-maximized="1"
     inkscape:current-layer="svg2" />
  <path
     d="M3 3.5a.5.5 0 1 1-1 0 .5.5 0 0 1 1 0m1.5 0a.5.5 0 1 1-1 0 .5.5 0 0 1 1 0m1 .5a.5.5 0 1 0 0-1 .5.5 0 0 0 0 1"
     id="path1"
     style="fill:#ffffff" />
  <path
     d="M.5 1a.5.5 0 0 0-.5.5v13a.5.5 0 0 0 .5.5h15a.5.5 0 0 0 .5-.5v-13a.5.5 0 0 0-.5-.5zM1 5V2h14v3zm0 1h14v8H1z"
     id="path2"
     style="fill:#ffffff" />
</svg>
