<?xml version="1.0" encoding="UTF-8" standalone="no"?>
<svg
   width="16"
   height="16"
   fill="currentColor"
   class="bi bi-bank"
   viewBox="0 0 16 16"
   version="1.1"
   id="svg1"
   sodipodi:docname="bank.svg"
   inkscape:version="1.4 (e7c3feb100, 2024-10-09)"
   xmlns:inkscape="http://www.inkscape.org/namespaces/inkscape"
   xmlns:sodipodi="http://sodipodi.sourceforge.net/DTD/sodipodi-0.dtd"
   xmlns="http://www.w3.org/2000/svg"
   xmlns:svg="http://www.w3.org/2000/svg">
  <defs
     id="defs1" />
  <sodipodi:namedview
     id="namedview1"
     pagecolor="#505050"
     bordercolor="#ffffff"
     borderopacity="1"
     inkscape:showpageshadow="0"
     inkscape:pageopacity="0"
     inkscape:pagecheckerboard="1"
     inkscape:deskcolor="#505050"
     inkscape:zoom="39.0625"
     inkscape:cx="8.0128"
     inkscape:cy="8"
     inkscape:window-width="1600"
     inkscape:window-height="834"
     inkscape:window-x="0"
     inkscape:window-y="0"
     inkscape:window-maximized="1"
     inkscape:current-layer="svg1" />
  <path
     d="m8 0 6.61 3h.89a.5.5 0 0 1 .5.5v2a.5.5 0 0 1-.5.5H15v7a.5.5 0 0 1 .485.38l.5 2a.498.498 0 0 1-.485.62H.5a.498.498 0 0 1-.485-.62l.5-2A.5.5 0 0 1 1 13V6H.5a.5.5 0 0 1-.5-.5v-2A.5.5 0 0 1 .5 3h.89zM3.777 3h8.447L8 1zM2 6v7h1V6zm2 0v7h2.5V6zm3.5 0v7h1V6zm2 0v7H12V6zM13 6v7h1V6zm2-1V4H1v1zm-.39 9H1.39l-.25 1h13.72z"
     id="path1"
     style="fill:#ffffff" />
</svg>
